<svg width="87" height="87" viewBox="0 0 87 87" fill="none" xmlns="http://www.w3.org/2000/svg">
<path d="M73.4099 37.0971L45.6925 8.7685C45.3582 8.43155 44.9606 8.1641 44.5226 7.98159C44.0845 7.79907 43.6146 7.7051 43.14 7.7051C42.6654 7.7051 42.1955 7.79907 41.7574 7.98159C41.3194 8.1641 40.9218 8.43155 40.5875 8.7685L12.8701 37.133C12.1994 37.8092 11.6697 38.6118 11.3118 39.4943C10.9538 40.3768 10.7748 41.3216 10.785 42.2739V72.4C10.7822 74.2403 11.4852 76.0117 12.7492 77.3492C14.0132 78.6868 15.742 79.4888 17.5795 79.59H68.7004C70.538 79.4888 72.2668 78.6868 73.5308 77.3492C74.7948 76.0117 75.4978 74.2403 75.495 72.4V42.2739C75.4978 40.3431 74.7502 38.4869 73.4099 37.0971V37.0971ZM35.95 72.4V50.83H50.33V72.4H35.95ZM68.305 72.4H57.52V47.235C57.52 46.2815 57.1412 45.3671 56.467 44.693C55.7929 44.0188 54.8785 43.64 53.925 43.64H32.355C31.4015 43.64 30.4871 44.0188 29.813 44.693C29.1388 45.3671 28.76 46.2815 28.76 47.235V72.4H17.975V42.1301L43.14 16.4258L68.305 42.2739V72.4Z" fill="currentColor"/>
</svg>
